<?xml version="1.0" standalone="no"?>
<svg xmlns="http://www.w3.org/2000/svg" version="1.1" width="348" height="348">
	<!-- Created with https://api.qrserver.com (QR Code API, see goQR.me/api for information) -->
	<title>QR Code</title>
	<desc>https://www.nexviacrm.co.kr/install</desc>
	<rect style="fill:rgb(255, 255, 255);fill-opacity:1" x="0" y="0" width="348" height="348" />
	<g id="elements">
		<path style="fill:rgb(0, 0, 0)" d="M 0,0 l 12,0 0,12 -12,0 z M 12,0 l 12,0 0,12 -12,0 z M 24,0 l 12,0 0,12 -12,0 z M 36,0 l 12,0 0,12 -12,0 z M 48,0 l 12,0 0,12 -12,0 z M 60,0 l 12,0 0,12 -12,0 z M 72,0 l 12,0 0,12 -12,0 z M 108,0 l 12,0 0,12 -12,0 z M 180,0 l 12,0 0,12 -12,0 z M 192,0 l 12,0 0,12 -12,0 z M 216,0 l 12,0 0,12 -12,0 z M 228,0 l 12,0 0,12 -12,0 z M 240,0 l 12,0 0,12 -12,0 z M 264,0 l 12,0 0,12 -12,0 z M 276,0 l 12,0 0,12 -12,0 z M 288,0 l 12,0 0,12 -12,0 z M 300,0 l 12,0 0,12 -12,0 z M 312,0 l 12,0 0,12 -12,0 z M 324,0 l 12,0 0,12 -12,0 z M 336,0 l 12,0 0,12 -12,0 z M 0,12 l 12,0 0,12 -12,0 z M 72,12 l 12,0 0,12 -12,0 z M 96,12 l 12,0 0,12 -12,0 z M 108,12 l 12,0 0,12 -12,0 z M 132,12 l 12,0 0,12 -12,0 z M 144,12 l 12,0 0,12 -12,0 z M 204,12 l 12,0 0,12 -12,0 z M 216,12 l 12,0 0,12 -12,0 z M 264,12 l 12,0 0,12 -12,0 z M 336,12 l 12,0 0,12 -12,0 z M 0,24 l 12,0 0,12 -12,0 z M 24,24 l 12,0 0,12 -12,0 z M 36,24 l 12,0 0,12 -12,0 z M 48,24 l 12,0 0,12 -12,0 z M 72,24 l 12,0 0,12 -12,0 z M 108,24 l 12,0 0,12 -12,0 z M 120,24 l 12,0 0,12 -12,0 z M 132,24 l 12,0 0,12 -12,0 z M 168,24 l 12,0 0,12 -12,0 z M 192,24 l 12,0 0,12 -12,0 z M 228,24 l 12,0 0,12 -12,0 z M 240,24 l 12,0 0,12 -12,0 z M 264,24 l 12,0 0,12 -12,0 z M 288,24 l 12,0 0,12 -12,0 z M 300,24 l 12,0 0,12 -12,0 z M 312,24 l 12,0 0,12 -12,0 z M 336,24 l 12,0 0,12 -12,0 z M 0,36 l 12,0 0,12 -12,0 z M 24,36 l 12,0 0,12 -12,0 z M 36,36 l 12,0 0,12 -12,0 z M 48,36 l 12,0 0,12 -12,0 z M 72,36 l 12,0 0,12 -12,0 z M 96,36 l 12,0 0,12 -12,0 z M 108,36 l 12,0 0,12 -12,0 z M 132,36 l 12,0 0,12 -12,0 z M 204,36 l 12,0 0,12 -12,0 z M 228,36 l 12,0 0,12 -12,0 z M 264,36 l 12,0 0,12 -12,0 z M 288,36 l 12,0 0,12 -12,0 z M 300,36 l 12,0 0,12 -12,0 z M 312,36 l 12,0 0,12 -12,0 z M 336,36 l 12,0 0,12 -12,0 z M 0,48 l 12,0 0,12 -12,0 z M 24,48 l 12,0 0,12 -12,0 z M 36,48 l 12,0 0,12 -12,0 z M 48,48 l 12,0 0,12 -12,0 z M 72,48 l 12,0 0,12 -12,0 z M 120,48 l 12,0 0,12 -12,0 z M 144,48 l 12,0 0,12 -12,0 z M 156,48 l 12,0 0,12 -12,0 z M 168,48 l 12,0 0,12 -12,0 z M 180,48 l 12,0 0,12 -12,0 z M 204,48 l 12,0 0,12 -12,0 z M 216,48 l 12,0 0,12 -12,0 z M 228,48 l 12,0 0,12 -12,0 z M 264,48 l 12,0 0,12 -12,0 z M 288,48 l 12,0 0,12 -12,0 z M 300,48 l 12,0 0,12 -12,0 z M 312,48 l 12,0 0,12 -12,0 z M 336,48 l 12,0 0,12 -12,0 z M 0,60 l 12,0 0,12 -12,0 z M 72,60 l 12,0 0,12 -12,0 z M 96,60 l 12,0 0,12 -12,0 z M 120,60 l 12,0 0,12 -12,0 z M 156,60 l 12,0 0,12 -12,0 z M 168,60 l 12,0 0,12 -12,0 z M 180,60 l 12,0 0,12 -12,0 z M 204,60 l 12,0 0,12 -12,0 z M 240,60 l 12,0 0,12 -12,0 z M 264,60 l 12,0 0,12 -12,0 z M 336,60 l 12,0 0,12 -12,0 z M 0,72 l 12,0 0,12 -12,0 z M 12,72 l 12,0 0,12 -12,0 z M 24,72 l 12,0 0,12 -12,0 z M 36,72 l 12,0 0,12 -12,0 z M 48,72 l 12,0 0,12 -12,0 z M 60,72 l 12,0 0,12 -12,0 z M 72,72 l 12,0 0,12 -12,0 z M 96,72 l 12,0 0,12 -12,0 z M 120,72 l 12,0 0,12 -12,0 z M 144,72 l 12,0 0,12 -12,0 z M 168,72 l 12,0 0,12 -12,0 z M 192,72 l 12,0 0,12 -12,0 z M 216,72 l 12,0 0,12 -12,0 z M 240,72 l 12,0 0,12 -12,0 z M 264,72 l 12,0 0,12 -12,0 z M 276,72 l 12,0 0,12 -12,0 z M 288,72 l 12,0 0,12 -12,0 z M 300,72 l 12,0 0,12 -12,0 z M 312,72 l 12,0 0,12 -12,0 z M 324,72 l 12,0 0,12 -12,0 z M 336,72 l 12,0 0,12 -12,0 z M 144,84 l 12,0 0,12 -12,0 z M 156,84 l 12,0 0,12 -12,0 z M 180,84 l 12,0 0,12 -12,0 z M 192,84 l 12,0 0,12 -12,0 z M 240,84 l 12,0 0,12 -12,0 z M 0,96 l 12,0 0,12 -12,0 z M 12,96 l 12,0 0,12 -12,0 z M 24,96 l 12,0 0,12 -12,0 z M 36,96 l 12,0 0,12 -12,0 z M 48,96 l 12,0 0,12 -12,0 z M 72,96 l 12,0 0,12 -12,0 z M 84,96 l 12,0 0,12 -12,0 z M 96,96 l 12,0 0,12 -12,0 z M 108,96 l 12,0 0,12 -12,0 z M 120,96 l 12,0 0,12 -12,0 z M 144,96 l 12,0 0,12 -12,0 z M 168,96 l 12,0 0,12 -12,0 z M 204,96 l 12,0 0,12 -12,0 z M 216,96 l 12,0 0,12 -12,0 z M 228,96 l 12,0 0,12 -12,0 z M 252,96 l 12,0 0,12 -12,0 z M 276,96 l 12,0 0,12 -12,0 z M 300,96 l 12,0 0,12 -12,0 z M 324,96 l 12,0 0,12 -12,0 z M 0,108 l 12,0 0,12 -12,0 z M 24,108 l 12,0 0,12 -12,0 z M 36,108 l 12,0 0,12 -12,0 z M 60,108 l 12,0 0,12 -12,0 z M 96,108 l 12,0 0,12 -12,0 z M 108,108 l 12,0 0,12 -12,0 z M 192,108 l 12,0 0,12 -12,0 z M 204,108 l 12,0 0,12 -12,0 z M 216,108 l 12,0 0,12 -12,0 z M 228,108 l 12,0 0,12 -12,0 z M 240,108 l 12,0 0,12 -12,0 z M 252,108 l 12,0 0,12 -12,0 z M 264,108 l 12,0 0,12 -12,0 z M 276,108 l 12,0 0,12 -12,0 z M 288,108 l 12,0 0,12 -12,0 z M 336,108 l 12,0 0,12 -12,0 z M 36,120 l 12,0 0,12 -12,0 z M 72,120 l 12,0 0,12 -12,0 z M 84,120 l 12,0 0,12 -12,0 z M 108,120 l 12,0 0,12 -12,0 z M 132,120 l 12,0 0,12 -12,0 z M 144,120 l 12,0 0,12 -12,0 z M 180,120 l 12,0 0,12 -12,0 z M 204,120 l 12,0 0,12 -12,0 z M 264,120 l 12,0 0,12 -12,0 z M 0,132 l 12,0 0,12 -12,0 z M 24,132 l 12,0 0,12 -12,0 z M 48,132 l 12,0 0,12 -12,0 z M 84,132 l 12,0 0,12 -12,0 z M 108,132 l 12,0 0,12 -12,0 z M 120,132 l 12,0 0,12 -12,0 z M 132,132 l 12,0 0,12 -12,0 z M 168,132 l 12,0 0,12 -12,0 z M 180,132 l 12,0 0,12 -12,0 z M 192,132 l 12,0 0,12 -12,0 z M 216,132 l 12,0 0,12 -12,0 z M 228,132 l 12,0 0,12 -12,0 z M 252,132 l 12,0 0,12 -12,0 z M 264,132 l 12,0 0,12 -12,0 z M 276,132 l 12,0 0,12 -12,0 z M 300,132 l 12,0 0,12 -12,0 z M 324,132 l 12,0 0,12 -12,0 z M 0,144 l 12,0 0,12 -12,0 z M 12,144 l 12,0 0,12 -12,0 z M 36,144 l 12,0 0,12 -12,0 z M 60,144 l 12,0 0,12 -12,0 z M 72,144 l 12,0 0,12 -12,0 z M 96,144 l 12,0 0,12 -12,0 z M 108,144 l 12,0 0,12 -12,0 z M 132,144 l 12,0 0,12 -12,0 z M 204,144 l 12,0 0,12 -12,0 z M 240,144 l 12,0 0,12 -12,0 z M 300,144 l 12,0 0,12 -12,0 z M 312,144 l 12,0 0,12 -12,0 z M 36,156 l 12,0 0,12 -12,0 z M 48,156 l 12,0 0,12 -12,0 z M 60,156 l 12,0 0,12 -12,0 z M 84,156 l 12,0 0,12 -12,0 z M 96,156 l 12,0 0,12 -12,0 z M 120,156 l 12,0 0,12 -12,0 z M 144,156 l 12,0 0,12 -12,0 z M 156,156 l 12,0 0,12 -12,0 z M 168,156 l 12,0 0,12 -12,0 z M 192,156 l 12,0 0,12 -12,0 z M 204,156 l 12,0 0,12 -12,0 z M 216,156 l 12,0 0,12 -12,0 z M 228,156 l 12,0 0,12 -12,0 z M 240,156 l 12,0 0,12 -12,0 z M 252,156 l 12,0 0,12 -12,0 z M 264,156 l 12,0 0,12 -12,0 z M 288,156 l 12,0 0,12 -12,0 z M 336,156 l 12,0 0,12 -12,0 z M 0,168 l 12,0 0,12 -12,0 z M 48,168 l 12,0 0,12 -12,0 z M 72,168 l 12,0 0,12 -12,0 z M 108,168 l 12,0 0,12 -12,0 z M 120,168 l 12,0 0,12 -12,0 z M 156,168 l 12,0 0,12 -12,0 z M 168,168 l 12,0 0,12 -12,0 z M 180,168 l 12,0 0,12 -12,0 z M 192,168 l 12,0 0,12 -12,0 z M 204,168 l 12,0 0,12 -12,0 z M 216,168 l 12,0 0,12 -12,0 z M 240,168 l 12,0 0,12 -12,0 z M 276,168 l 12,0 0,12 -12,0 z M 300,168 l 12,0 0,12 -12,0 z M 312,168 l 12,0 0,12 -12,0 z M 0,180 l 12,0 0,12 -12,0 z M 12,180 l 12,0 0,12 -12,0 z M 24,180 l 12,0 0,12 -12,0 z M 36,180 l 12,0 0,12 -12,0 z M 84,180 l 12,0 0,12 -12,0 z M 96,180 l 12,0 0,12 -12,0 z M 108,180 l 12,0 0,12 -12,0 z M 120,180 l 12,0 0,12 -12,0 z M 144,180 l 12,0 0,12 -12,0 z M 156,180 l 12,0 0,12 -12,0 z M 180,180 l 12,0 0,12 -12,0 z M 228,180 l 12,0 0,12 -12,0 z M 276,180 l 12,0 0,12 -12,0 z M 288,180 l 12,0 0,12 -12,0 z M 324,180 l 12,0 0,12 -12,0 z M 36,192 l 12,0 0,12 -12,0 z M 48,192 l 12,0 0,12 -12,0 z M 60,192 l 12,0 0,12 -12,0 z M 72,192 l 12,0 0,12 -12,0 z M 96,192 l 12,0 0,12 -12,0 z M 144,192 l 12,0 0,12 -12,0 z M 168,192 l 12,0 0,12 -12,0 z M 180,192 l 12,0 0,12 -12,0 z M 204,192 l 12,0 0,12 -12,0 z M 276,192 l 12,0 0,12 -12,0 z M 300,192 l 12,0 0,12 -12,0 z M 312,192 l 12,0 0,12 -12,0 z M 0,204 l 12,0 0,12 -12,0 z M 12,204 l 12,0 0,12 -12,0 z M 24,204 l 12,0 0,12 -12,0 z M 36,204 l 12,0 0,12 -12,0 z M 48,204 l 12,0 0,12 -12,0 z M 60,204 l 12,0 0,12 -12,0 z M 96,204 l 12,0 0,12 -12,0 z M 108,204 l 12,0 0,12 -12,0 z M 192,204 l 12,0 0,12 -12,0 z M 228,204 l 12,0 0,12 -12,0 z M 240,204 l 12,0 0,12 -12,0 z M 264,204 l 12,0 0,12 -12,0 z M 276,204 l 12,0 0,12 -12,0 z M 288,204 l 12,0 0,12 -12,0 z M 312,204 l 12,0 0,12 -12,0 z M 336,204 l 12,0 0,12 -12,0 z M 0,216 l 12,0 0,12 -12,0 z M 36,216 l 12,0 0,12 -12,0 z M 48,216 l 12,0 0,12 -12,0 z M 72,216 l 12,0 0,12 -12,0 z M 96,216 l 12,0 0,12 -12,0 z M 120,216 l 12,0 0,12 -12,0 z M 132,216 l 12,0 0,12 -12,0 z M 144,216 l 12,0 0,12 -12,0 z M 180,216 l 12,0 0,12 -12,0 z M 204,216 l 12,0 0,12 -12,0 z M 216,216 l 12,0 0,12 -12,0 z M 240,216 l 12,0 0,12 -12,0 z M 252,216 l 12,0 0,12 -12,0 z M 264,216 l 12,0 0,12 -12,0 z M 276,216 l 12,0 0,12 -12,0 z M 312,216 l 12,0 0,12 -12,0 z M 0,228 l 12,0 0,12 -12,0 z M 24,228 l 12,0 0,12 -12,0 z M 96,228 l 12,0 0,12 -12,0 z M 108,228 l 12,0 0,12 -12,0 z M 120,228 l 12,0 0,12 -12,0 z M 132,228 l 12,0 0,12 -12,0 z M 168,228 l 12,0 0,12 -12,0 z M 180,228 l 12,0 0,12 -12,0 z M 192,228 l 12,0 0,12 -12,0 z M 216,228 l 12,0 0,12 -12,0 z M 252,228 l 12,0 0,12 -12,0 z M 276,228 l 12,0 0,12 -12,0 z M 288,228 l 12,0 0,12 -12,0 z M 324,228 l 12,0 0,12 -12,0 z M 0,240 l 12,0 0,12 -12,0 z M 48,240 l 12,0 0,12 -12,0 z M 60,240 l 12,0 0,12 -12,0 z M 72,240 l 12,0 0,12 -12,0 z M 84,240 l 12,0 0,12 -12,0 z M 96,240 l 12,0 0,12 -12,0 z M 108,240 l 12,0 0,12 -12,0 z M 132,240 l 12,0 0,12 -12,0 z M 180,240 l 12,0 0,12 -12,0 z M 192,240 l 12,0 0,12 -12,0 z M 204,240 l 12,0 0,12 -12,0 z M 216,240 l 12,0 0,12 -12,0 z M 240,240 l 12,0 0,12 -12,0 z M 252,240 l 12,0 0,12 -12,0 z M 264,240 l 12,0 0,12 -12,0 z M 276,240 l 12,0 0,12 -12,0 z M 288,240 l 12,0 0,12 -12,0 z M 312,240 l 12,0 0,12 -12,0 z M 324,240 l 12,0 0,12 -12,0 z M 336,240 l 12,0 0,12 -12,0 z M 96,252 l 12,0 0,12 -12,0 z M 108,252 l 12,0 0,12 -12,0 z M 120,252 l 12,0 0,12 -12,0 z M 144,252 l 12,0 0,12 -12,0 z M 156,252 l 12,0 0,12 -12,0 z M 168,252 l 12,0 0,12 -12,0 z M 192,252 l 12,0 0,12 -12,0 z M 204,252 l 12,0 0,12 -12,0 z M 216,252 l 12,0 0,12 -12,0 z M 240,252 l 12,0 0,12 -12,0 z M 288,252 l 12,0 0,12 -12,0 z M 300,252 l 12,0 0,12 -12,0 z M 312,252 l 12,0 0,12 -12,0 z M 324,252 l 12,0 0,12 -12,0 z M 336,252 l 12,0 0,12 -12,0 z M 0,264 l 12,0 0,12 -12,0 z M 12,264 l 12,0 0,12 -12,0 z M 24,264 l 12,0 0,12 -12,0 z M 36,264 l 12,0 0,12 -12,0 z M 48,264 l 12,0 0,12 -12,0 z M 60,264 l 12,0 0,12 -12,0 z M 72,264 l 12,0 0,12 -12,0 z M 96,264 l 12,0 0,12 -12,0 z M 108,264 l 12,0 0,12 -12,0 z M 120,264 l 12,0 0,12 -12,0 z M 156,264 l 12,0 0,12 -12,0 z M 168,264 l 12,0 0,12 -12,0 z M 180,264 l 12,0 0,12 -12,0 z M 192,264 l 12,0 0,12 -12,0 z M 204,264 l 12,0 0,12 -12,0 z M 228,264 l 12,0 0,12 -12,0 z M 240,264 l 12,0 0,12 -12,0 z M 264,264 l 12,0 0,12 -12,0 z M 288,264 l 12,0 0,12 -12,0 z M 300,264 l 12,0 0,12 -12,0 z M 312,264 l 12,0 0,12 -12,0 z M 0,276 l 12,0 0,12 -12,0 z M 72,276 l 12,0 0,12 -12,0 z M 144,276 l 12,0 0,12 -12,0 z M 156,276 l 12,0 0,12 -12,0 z M 228,276 l 12,0 0,12 -12,0 z M 240,276 l 12,0 0,12 -12,0 z M 288,276 l 12,0 0,12 -12,0 z M 336,276 l 12,0 0,12 -12,0 z M 0,288 l 12,0 0,12 -12,0 z M 24,288 l 12,0 0,12 -12,0 z M 36,288 l 12,0 0,12 -12,0 z M 48,288 l 12,0 0,12 -12,0 z M 72,288 l 12,0 0,12 -12,0 z M 96,288 l 12,0 0,12 -12,0 z M 144,288 l 12,0 0,12 -12,0 z M 168,288 l 12,0 0,12 -12,0 z M 180,288 l 12,0 0,12 -12,0 z M 192,288 l 12,0 0,12 -12,0 z M 204,288 l 12,0 0,12 -12,0 z M 240,288 l 12,0 0,12 -12,0 z M 252,288 l 12,0 0,12 -12,0 z M 264,288 l 12,0 0,12 -12,0 z M 276,288 l 12,0 0,12 -12,0 z M 288,288 l 12,0 0,12 -12,0 z M 312,288 l 12,0 0,12 -12,0 z M 324,288 l 12,0 0,12 -12,0 z M 0,300 l 12,0 0,12 -12,0 z M 24,300 l 12,0 0,12 -12,0 z M 36,300 l 12,0 0,12 -12,0 z M 48,300 l 12,0 0,12 -12,0 z M 72,300 l 12,0 0,12 -12,0 z M 96,300 l 12,0 0,12 -12,0 z M 108,300 l 12,0 0,12 -12,0 z M 192,300 l 12,0 0,12 -12,0 z M 204,300 l 12,0 0,12 -12,0 z M 216,300 l 12,0 0,12 -12,0 z M 228,300 l 12,0 0,12 -12,0 z M 276,300 l 12,0 0,12 -12,0 z M 300,300 l 12,0 0,12 -12,0 z M 312,300 l 12,0 0,12 -12,0 z M 324,300 l 12,0 0,12 -12,0 z M 336,300 l 12,0 0,12 -12,0 z M 0,312 l 12,0 0,12 -12,0 z M 24,312 l 12,0 0,12 -12,0 z M 36,312 l 12,0 0,12 -12,0 z M 48,312 l 12,0 0,12 -12,0 z M 72,312 l 12,0 0,12 -12,0 z M 96,312 l 12,0 0,12 -12,0 z M 108,312 l 12,0 0,12 -12,0 z M 120,312 l 12,0 0,12 -12,0 z M 132,312 l 12,0 0,12 -12,0 z M 144,312 l 12,0 0,12 -12,0 z M 180,312 l 12,0 0,12 -12,0 z M 216,312 l 12,0 0,12 -12,0 z M 240,312 l 12,0 0,12 -12,0 z M 264,312 l 12,0 0,12 -12,0 z M 276,312 l 12,0 0,12 -12,0 z M 288,312 l 12,0 0,12 -12,0 z M 300,312 l 12,0 0,12 -12,0 z M 312,312 l 12,0 0,12 -12,0 z M 324,312 l 12,0 0,12 -12,0 z M 0,324 l 12,0 0,12 -12,0 z M 72,324 l 12,0 0,12 -12,0 z M 96,324 l 12,0 0,12 -12,0 z M 108,324 l 12,0 0,12 -12,0 z M 120,324 l 12,0 0,12 -12,0 z M 132,324 l 12,0 0,12 -12,0 z M 168,324 l 12,0 0,12 -12,0 z M 192,324 l 12,0 0,12 -12,0 z M 240,324 l 12,0 0,12 -12,0 z M 276,324 l 12,0 0,12 -12,0 z M 300,324 l 12,0 0,12 -12,0 z M 324,324 l 12,0 0,12 -12,0 z M 0,336 l 12,0 0,12 -12,0 z M 12,336 l 12,0 0,12 -12,0 z M 24,336 l 12,0 0,12 -12,0 z M 36,336 l 12,0 0,12 -12,0 z M 48,336 l 12,0 0,12 -12,0 z M 60,336 l 12,0 0,12 -12,0 z M 72,336 l 12,0 0,12 -12,0 z M 96,336 l 12,0 0,12 -12,0 z M 108,336 l 12,0 0,12 -12,0 z M 132,336 l 12,0 0,12 -12,0 z M 204,336 l 12,0 0,12 -12,0 z M 228,336 l 12,0 0,12 -12,0 z M 252,336 l 12,0 0,12 -12,0 z M 264,336 l 12,0 0,12 -12,0 z M 276,336 l 12,0 0,12 -12,0 z M 288,336 l 12,0 0,12 -12,0 z M 300,336 l 12,0 0,12 -12,0 z M 312,336 l 12,0 0,12 -12,0 z " />
	</g>
</svg>
